<svg width="1600" height="276" viewBox="0 0 1600 276" fill="none" xmlns="http://www.w3.org/2000/svg" role="img" aria-labelledby="title desc">
  <title id="title">Stack and Engineering Identity Pills</title>
  <desc id="desc">Linux First, C++ 20, Reinforcement Learning, PPO, Backend LibTorch CPU, Tracking SQLite, Simulation, Orbital Mission Direction, Telemetry, Run/Episode/Event, Benchmarking, Reproducible, UML, Architecture Discipline, Systems Engineering, CI failing, CI Smoke Benchmark, Optional MuJoCo, Future TensorRT Path.</desc>
  <defs>
    <linearGradient id="panelBg" x1="80" y1="18" x2="1520" y2="258" gradientUnits="userSpaceOnUse">
      <stop stop-color="#090F19"/>
      <stop offset="1" stop-color="#0D1320"/>
    </linearGradient>
    <filter id="softShadow" x="-20%" y="-40%" width="140%" height="180%" color-interpolation-filters="sRGB">
      <feDropShadow dx="0" dy="6" stdDeviation="6" flood-color="#000000" flood-opacity="0.28"/>
    </filter>

    <linearGradient id="gBlue" x1="0" y1="0" x2="1" y2="1">
      <stop stop-color="#1E3A8A"/>
      <stop offset="1" stop-color="#2563EB"/>
    </linearGradient>
    <linearGradient id="gIndigo" x1="0" y1="0" x2="1" y2="1">
      <stop stop-color="#312E81"/>
      <stop offset="1" stop-color="#4F46E5"/>
    </linearGradient>
    <linearGradient id="gCyan" x1="0" y1="0" x2="1" y2="1">
      <stop stop-color="#0F4C5C"/>
      <stop offset="1" stop-color="#0891B2"/>
    </linearGradient>
    <linearGradient id="gTeal" x1="0" y1="0" x2="1" y2="1">
      <stop stop-color="#115E59"/>
      <stop offset="1" stop-color="#14B8A6"/>
    </linearGradient>
    <linearGradient id="gPurple" x1="0" y1="0" x2="1" y2="1">
      <stop stop-color="#4C1D95"/>
      <stop offset="1" stop-color="#7C3AED"/>
    </linearGradient>
    <linearGradient id="gAmber" x1="0" y1="0" x2="1" y2="1">
      <stop stop-color="#78350F"/>
      <stop offset="1" stop-color="#D97706"/>
    </linearGradient>
    <linearGradient id="gRed" x1="0" y1="0" x2="1" y2="1">
      <stop stop-color="#7F1D1D"/>
      <stop offset="1" stop-color="#DC2626"/>
    </linearGradient>
  </defs>

  <rect x="10" y="10" width="1580" height="256" rx="18" fill="url(#panelBg)" stroke="#2A3850" stroke-width="1.4"/>

  <g font-family="Inter, Segoe UI, Arial, sans-serif" font-size="22" font-weight="700" fill="#F6FAFF" filter="url(#softShadow)">
    <!-- Row 1 -->
    <rect x="30" y="32" width="170" height="40" rx="9" fill="url(#gBlue)"/>
    <text x="115" y="58" text-anchor="middle">Linux First</text>

    <rect x="214" y="32" width="118" height="40" rx="9" fill="url(#gIndigo)"/>
    <text x="273" y="58" text-anchor="middle">C++ 20</text>

    <rect x="346" y="32" width="286" height="40" rx="9" fill="url(#gCyan)"/>
    <text x="489" y="58" text-anchor="middle">Reinforcement Learning</text>

    <rect x="646" y="32" width="94" height="40" rx="9" fill="url(#gTeal)"/>
    <text x="693" y="58" text-anchor="middle">PPO</text>

    <rect x="754" y="32" width="302" height="40" rx="9" fill="url(#gBlue)"/>
    <text x="905" y="58" text-anchor="middle">Backend LibTorch CPU</text>

    <rect x="1070" y="32" width="254" height="40" rx="9" fill="url(#gIndigo)"/>
    <text x="1197" y="58" text-anchor="middle">Tracking SQLite</text>

    <!-- Row 2 -->
    <rect x="30" y="88" width="142" height="40" rx="9" fill="url(#gTeal)"/>
    <text x="101" y="114" text-anchor="middle">Simulation</text>

    <rect x="186" y="88" width="306" height="40" rx="9" fill="url(#gCyan)"/>
    <text x="339" y="114" text-anchor="middle">Orbital Mission Direction</text>

    <rect x="506" y="88" width="140" height="40" rx="9" fill="url(#gBlue)"/>
    <text x="576" y="114" text-anchor="middle">Telemetry</text>

    <rect x="660" y="88" width="214" height="40" rx="9" fill="url(#gIndigo)"/>
    <text x="767" y="114" text-anchor="middle">Run/Episode/Event</text>

    <rect x="888" y="88" width="176" height="40" rx="9" fill="url(#gTeal)"/>
    <text x="976" y="114" text-anchor="middle">Benchmarking</text>

    <rect x="1078" y="88" width="174" height="40" rx="9" fill="url(#gCyan)"/>
    <text x="1165" y="114" text-anchor="middle">Reproducible</text>

    <rect x="1266" y="88" width="82" height="40" rx="9" fill="url(#gPurple)"/>
    <text x="1307" y="114" text-anchor="middle">UML</text>

    <rect x="1362" y="88" width="208" height="40" rx="9" fill="url(#gPurple)"/>
    <text x="1466" y="114" text-anchor="middle">Architecture Discipline</text>

    <!-- Row 3 -->
    <rect x="30" y="144" width="230" height="40" rx="9" fill="url(#gPurple)"/>
    <text x="145" y="170" text-anchor="middle">Systems Engineering</text>

    <rect x="274" y="144" width="124" height="40" rx="9" fill="url(#gRed)"/>
    <text x="336" y="170" text-anchor="middle">CI failing</text>

    <rect x="412" y="144" width="246" height="40" rx="9" fill="url(#gIndigo)"/>
    <text x="535" y="170" text-anchor="middle">CI Smoke Benchmark</text>

    <rect x="672" y="144" width="202" height="40" rx="9" fill="url(#gAmber)"/>
    <text x="773" y="170" text-anchor="middle">Optional MuJoCo</text>

    <rect x="888" y="144" width="248" height="40" rx="9" fill="url(#gAmber)"/>
    <text x="1012" y="170" text-anchor="middle">Future TensorRT Path</text>
  </g>
</svg>
