<svg width="1600" height="320" viewBox="0 0 1600 320" fill="none" xmlns="http://www.w3.org/2000/svg" role="img" aria-labelledby="title desc">
  <title id="title">Mission capabilities strip</title>
  <desc id="desc">Core mission and engineering capabilities for orbital reinforcement learning systems.</desc>
  <defs>
    <linearGradient id="bg" x1="120" y1="12" x2="1490" y2="308" gradientUnits="userSpaceOnUse">
      <stop stop-color="#090F18"/>
      <stop offset="1" stop-color="#0D1421"/>
    </linearGradient>
    <linearGradient id="headerGlow" x1="120" y1="38" x2="360" y2="38" gradientUnits="userSpaceOnUse">
      <stop stop-color="#1E40AF"/>
      <stop offset="1" stop-color="#0EA5E9"/>
    </linearGradient>
    <filter id="cardShadow" x="-20%" y="-30%" width="140%" height="180%" color-interpolation-filters="sRGB">
      <feDropShadow dx="0" dy="5" stdDeviation="4" flood-color="#000000" flood-opacity="0.24"/>
    </filter>
    <linearGradient id="cardFill" x1="0" y1="0" x2="1" y2="1">
      <stop stop-color="#0E1827"/>
      <stop offset="1" stop-color="#111F31"/>
    </linearGradient>
    <linearGradient id="cardAccentA" x1="0" y1="0" x2="1" y2="0">
      <stop stop-color="#2563EB"/>
      <stop offset="1" stop-color="#0EA5E9"/>
    </linearGradient>
    <linearGradient id="cardAccentB" x1="0" y1="0" x2="1" y2="0">
      <stop stop-color="#0F766E"/>
      <stop offset="1" stop-color="#14B8A6"/>
    </linearGradient>
    <linearGradient id="cardAccentC" x1="0" y1="0" x2="1" y2="0">
      <stop stop-color="#5B21B6"/>
      <stop offset="1" stop-color="#8B5CF6"/>
    </linearGradient>
    <linearGradient id="cardAccentD" x1="0" y1="0" x2="1" y2="0">
      <stop stop-color="#92400E"/>
      <stop offset="1" stop-color="#F59E0B"/>
    </linearGradient>
  </defs>

  <rect width="1600" height="320" rx="24" fill="url(#bg)" stroke="#28384D" stroke-width="1.2"/>
  <rect x="120" y="32" width="236" height="3" rx="2" fill="url(#headerGlow)"/>
  <text x="120" y="50" fill="#AFC5E8" font-family="Inter, Segoe UI, Arial, sans-serif" font-size="16" font-weight="700" letter-spacing="2">CORE CAPABILITIES</text>

  <g font-family="Inter, Segoe UI, Arial, sans-serif" filter="url(#cardShadow)">
    <rect x="120" y="72" width="186" height="96" rx="14" fill="url(#cardFill)" stroke="#2F4867"/>
    <rect x="120" y="72" width="186" height="6" rx="6" fill="url(#cardAccentA)"/>
    <text x="140" y="112" fill="#F3F8FF" font-size="20" font-weight="700">Orbital Simulation</text>
    <text x="140" y="138" fill="#A9C2E3" font-size="15">environment API ready</text>

    <rect x="322" y="72" width="186" height="96" rx="14" fill="url(#cardFill)" stroke="#2F4867"/>
    <rect x="322" y="72" width="186" height="6" rx="6" fill="url(#cardAccentB)"/>
    <text x="342" y="112" fill="#F3F8FF" font-size="20" font-weight="700">Autonomous Control</text>
    <text x="342" y="138" fill="#A9C2E3" font-size="15">continuous action policy</text>

    <rect x="524" y="72" width="186" height="96" rx="14" fill="url(#cardFill)" stroke="#2F4867"/>
    <rect x="524" y="72" width="186" height="6" rx="6" fill="url(#cardAccentA)"/>
    <text x="544" y="112" fill="#F3F8FF" font-size="20" font-weight="700">PPO Training</text>
    <text x="544" y="138" fill="#A9C2E3" font-size="15">clipped updates + GAE</text>

    <rect x="726" y="72" width="186" height="96" rx="14" fill="url(#cardFill)" stroke="#2F4867"/>
    <rect x="726" y="72" width="186" height="6" rx="6" fill="url(#cardAccentB)"/>
    <text x="746" y="112" fill="#F3F8FF" font-size="20" font-weight="700">Mission Telemetry</text>
    <text x="746" y="138" fill="#A9C2E3" font-size="15">run/episode traces</text>

    <rect x="928" y="72" width="186" height="96" rx="14" fill="url(#cardFill)" stroke="#2F4867"/>
    <rect x="928" y="72" width="186" height="6" rx="6" fill="url(#cardAccentC)"/>
    <text x="948" y="112" fill="#F3F8FF" font-size="20" font-weight="700">SQLite Tracking</text>
    <text x="948" y="138" fill="#A9C2E3" font-size="15">local-first persistence</text>

    <rect x="1130" y="72" width="186" height="96" rx="14" fill="url(#cardFill)" stroke="#2F4867"/>
    <rect x="1130" y="72" width="186" height="6" rx="6" fill="url(#cardAccentD)"/>
    <text x="1150" y="112" fill="#F3F8FF" font-size="20" font-weight="700">Repro Benchmarks</text>
    <text x="1150" y="138" fill="#A9C2E3" font-size="15">smoke + report outputs</text>

    <rect x="1332" y="72" width="146" height="96" rx="14" fill="url(#cardFill)" stroke="#2F4867"/>
    <rect x="1332" y="72" width="146" height="6" rx="6" fill="url(#cardAccentA)"/>
    <text x="1352" y="112" fill="#F3F8FF" font-size="20" font-weight="700">LibTorch</text>
    <text x="1352" y="138" fill="#A9C2E3" font-size="15">CPU backend</text>

    <rect x="120" y="188" width="220" height="96" rx="14" fill="url(#cardFill)" stroke="#2F4867"/>
    <rect x="120" y="188" width="220" height="6" rx="6" fill="url(#cardAccentC)"/>
    <text x="140" y="228" fill="#F3F8FF" font-size="20" font-weight="700">UML Architecture</text>
    <text x="140" y="254" fill="#A9C2E3" font-size="15">component/class/sequence</text>

    <rect x="356" y="188" width="220" height="96" rx="14" fill="url(#cardFill)" stroke="#2F4867"/>
    <rect x="356" y="188" width="220" height="6" rx="6" fill="url(#cardAccentA)"/>
    <text x="376" y="228" fill="#F3F8FF" font-size="20" font-weight="700">Linux-First Tooling</text>
    <text x="376" y="254" fill="#A9C2E3" font-size="15">cmake + cli workflows</text>

    <rect x="592" y="188" width="220" height="96" rx="14" fill="url(#cardFill)" stroke="#2F4867"/>
    <rect x="592" y="188" width="220" height="6" rx="6" fill="url(#cardAccentD)"/>
    <text x="612" y="228" fill="#F3F8FF" font-size="20" font-weight="700">Mission Replay UI</text>
    <text x="612" y="254" fill="#A9C2E3" font-size="15">artifact-driven inspection</text>

    <rect x="828" y="188" width="300" height="96" rx="14" fill="url(#cardFill)" stroke="#2F4867"/>
    <rect x="828" y="188" width="300" height="6" rx="6" fill="url(#cardAccentB)"/>
    <text x="848" y="228" fill="#F3F8FF" font-size="20" font-weight="700">Extensible Inference Backend</text>
    <text x="848" y="254" fill="#A9C2E3" font-size="15">libtorch active, TensorRT deferred</text>

    <rect x="1144" y="188" width="334" height="96" rx="14" fill="url(#cardFill)" stroke="#2F4867"/>
    <rect x="1144" y="188" width="334" height="6" rx="6" fill="url(#cardAccentC)"/>
    <text x="1164" y="228" fill="#F3F8FF" font-size="20" font-weight="700">Software + AI Engineering Portfolio Quality</text>
    <text x="1164" y="254" fill="#A9C2E3" font-size="15">systems architecture with control-learning rigor</text>
  </g>
</svg>
